<mxfile host="app.diagrams.net" modified="2023-11-23T14:41:59.853Z" agent="Mozilla/5.0 (Windows NT 10.0; Win64; x64) AppleWebKit/537.36 (KHTML, like Gecko) Chrome/119.0.0.0 Safari/537.36" etag="X-RH5dGxJhTwBn3lMw3y" version="22.1.3" type="google">
  <diagram name="Pagina-1" id="04zOBSDxBIlsqp_Ebadp">
    <mxGraphModel grid="1" page="1" gridSize="10" guides="1" tooltips="1" connect="1" arrows="1" fold="1" pageScale="1" pageWidth="827" pageHeight="1169" math="0" shadow="0">
      <root>
        <mxCell id="0" />
        <mxCell id="1" parent="0" />
        <mxCell id="RQSV0Oupw16wnDp00vhJ-1" value="Actor" style="shape=umlActor;verticalLabelPosition=bottom;verticalAlign=top;html=1;outlineConnect=0;" vertex="1" parent="1">
          <mxGeometry x="40" y="555" width="30" height="60" as="geometry" />
        </mxCell>
        <mxCell id="RQSV0Oupw16wnDp00vhJ-2" value="" style="rounded=0;whiteSpace=wrap;html=1;rotation=-90;" vertex="1" parent="1">
          <mxGeometry x="-60" y="472" width="600" height="225" as="geometry" />
        </mxCell>
        <mxCell id="RQSV0Oupw16wnDp00vhJ-3" value="&lt;b&gt;&lt;font style=&quot;font-size: 25px;&quot;&gt;CLIENT&lt;/font&gt;&lt;/b&gt;" style="rounded=0;whiteSpace=wrap;html=1;" vertex="1" parent="1">
          <mxGeometry x="182.5" y="190" width="120" height="60" as="geometry" />
        </mxCell>
        <mxCell id="RQSV0Oupw16wnDp00vhJ-5" value="" style="endArrow=classic;html=1;rounded=0;entryX=0;entryY=0.5;entryDx=0;entryDy=0;" edge="1" parent="1" target="RQSV0Oupw16wnDp00vhJ-8">
          <mxGeometry width="50" height="50" relative="1" as="geometry">
            <mxPoint x="80" y="590" as="sourcePoint" />
            <mxPoint x="610" y="590" as="targetPoint" />
          </mxGeometry>
        </mxCell>
        <mxCell id="RQSV0Oupw16wnDp00vhJ-6" value="" style="rounded=0;whiteSpace=wrap;html=1;rotation=-90;" vertex="1" parent="1">
          <mxGeometry x="270" y="472.5" width="600" height="225" as="geometry" />
        </mxCell>
        <mxCell id="RQSV0Oupw16wnDp00vhJ-7" value="&lt;span style=&quot;font-size: 25px;&quot;&gt;&lt;b&gt;SERVER&lt;/b&gt;&lt;/span&gt;" style="rounded=0;whiteSpace=wrap;html=1;" vertex="1" parent="1">
          <mxGeometry x="510" y="190" width="120" height="60" as="geometry" />
        </mxCell>
        <mxCell id="RQSV0Oupw16wnDp00vhJ-8" value="&lt;font style=&quot;font-size: 17px;&quot;&gt;CONNECTION&lt;/font&gt;" style="ellipse;whiteSpace=wrap;html=1;" vertex="1" parent="1">
          <mxGeometry x="150" y="300" width="180" height="60" as="geometry" />
        </mxCell>
        <mxCell id="zP8x6gBg1OQWRvIfAUhz-4" style="edgeStyle=orthogonalEdgeStyle;rounded=0;orthogonalLoop=1;jettySize=auto;html=1;exitX=0.5;exitY=1;exitDx=0;exitDy=0;entryX=0.5;entryY=0;entryDx=0;entryDy=0;" edge="1" parent="1" source="RQSV0Oupw16wnDp00vhJ-4" target="zP8x6gBg1OQWRvIfAUhz-2">
          <mxGeometry relative="1" as="geometry" />
        </mxCell>
        <mxCell id="RQSV0Oupw16wnDp00vhJ-4" value="&lt;font style=&quot;font-size: 17px;&quot;&gt;ACCEPT CONNECTION&lt;/font&gt;" style="ellipse;whiteSpace=wrap;html=1;" vertex="1" parent="1">
          <mxGeometry x="490" y="300" width="180" height="60" as="geometry" />
        </mxCell>
        <mxCell id="zP8x6gBg1OQWRvIfAUhz-1" value="" style="endArrow=classic;html=1;rounded=0;exitX=1;exitY=0.5;exitDx=0;exitDy=0;entryX=0;entryY=0.5;entryDx=0;entryDy=0;" edge="1" parent="1" source="RQSV0Oupw16wnDp00vhJ-8" target="RQSV0Oupw16wnDp00vhJ-4">
          <mxGeometry width="50" height="50" relative="1" as="geometry">
            <mxPoint x="480" y="640" as="sourcePoint" />
            <mxPoint x="530" y="590" as="targetPoint" />
          </mxGeometry>
        </mxCell>
        <mxCell id="zP8x6gBg1OQWRvIfAUhz-2" value="&lt;font style=&quot;font-size: 17px;&quot;&gt;START GAME&lt;/font&gt;" style="ellipse;whiteSpace=wrap;html=1;" vertex="1" parent="1">
          <mxGeometry x="490" y="400" width="180" height="60" as="geometry" />
        </mxCell>
        <mxCell id="zP8x6gBg1OQWRvIfAUhz-6" value="&lt;font style=&quot;font-size: 17px;&quot;&gt;SHOW GRAPHIC&lt;/font&gt;" style="ellipse;whiteSpace=wrap;html=1;" vertex="1" parent="1">
          <mxGeometry x="152.5" y="400" width="180" height="60" as="geometry" />
        </mxCell>
        <mxCell id="zP8x6gBg1OQWRvIfAUhz-8" value="" style="endArrow=classic;html=1;rounded=0;exitX=0;exitY=0.5;exitDx=0;exitDy=0;" edge="1" parent="1" source="zP8x6gBg1OQWRvIfAUhz-6">
          <mxGeometry width="50" height="50" relative="1" as="geometry">
            <mxPoint x="480" y="640" as="sourcePoint" />
            <mxPoint x="90" y="580" as="targetPoint" />
          </mxGeometry>
        </mxCell>
        <mxCell id="zP8x6gBg1OQWRvIfAUhz-9" value="" style="endArrow=classic;html=1;rounded=0;exitX=1;exitY=0.5;exitDx=0;exitDy=0;entryX=0;entryY=0.5;entryDx=0;entryDy=0;" edge="1" parent="1">
          <mxGeometry width="50" height="50" relative="1" as="geometry">
            <mxPoint x="490" y="429" as="sourcePoint" />
            <mxPoint x="330" y="429" as="targetPoint" />
          </mxGeometry>
        </mxCell>
        <mxCell id="zP8x6gBg1OQWRvIfAUhz-11" value="&lt;font style=&quot;font-size: 17px;&quot;&gt;DRAW / PLAY CARDS /&amp;nbsp; ADD CARD / PASS TURN&amp;nbsp;&amp;nbsp;&lt;/font&gt;" style="ellipse;whiteSpace=wrap;html=1;" vertex="1" parent="1">
          <mxGeometry x="130" y="510" width="220" height="90" as="geometry" />
        </mxCell>
        <mxCell id="zP8x6gBg1OQWRvIfAUhz-12" value="" style="endArrow=classic;html=1;rounded=0;entryX=0;entryY=0.5;entryDx=0;entryDy=0;" edge="1" parent="1" target="zP8x6gBg1OQWRvIfAUhz-11">
          <mxGeometry width="50" height="50" relative="1" as="geometry">
            <mxPoint x="80" y="590" as="sourcePoint" />
            <mxPoint x="530" y="590" as="targetPoint" />
          </mxGeometry>
        </mxCell>
        <mxCell id="zP8x6gBg1OQWRvIfAUhz-13" value="&lt;font style=&quot;font-size: 17px;&quot;&gt;EXECUTE REQUEST&lt;/font&gt;" style="ellipse;whiteSpace=wrap;html=1;" vertex="1" parent="1">
          <mxGeometry x="490" y="525" width="180" height="60" as="geometry" />
        </mxCell>
        <mxCell id="zP8x6gBg1OQWRvIfAUhz-14" value="" style="endArrow=classic;html=1;rounded=0;exitX=1;exitY=0.5;exitDx=0;exitDy=0;entryX=0;entryY=0.5;entryDx=0;entryDy=0;" edge="1" parent="1" source="zP8x6gBg1OQWRvIfAUhz-11" target="zP8x6gBg1OQWRvIfAUhz-13">
          <mxGeometry width="50" height="50" relative="1" as="geometry">
            <mxPoint x="470" y="640" as="sourcePoint" />
            <mxPoint x="520" y="590" as="targetPoint" />
          </mxGeometry>
        </mxCell>
        <mxCell id="zP8x6gBg1OQWRvIfAUhz-15" value="" style="endArrow=classic;html=1;rounded=0;entryX=0.341;entryY=0.1;entryDx=0;entryDy=0;entryPerimeter=0;" edge="1" parent="1" target="RQSV0Oupw16wnDp00vhJ-2">
          <mxGeometry width="50" height="50" relative="1" as="geometry">
            <mxPoint x="80" y="590" as="sourcePoint" />
            <mxPoint x="100" y="680" as="targetPoint" />
          </mxGeometry>
        </mxCell>
        <mxCell id="zP8x6gBg1OQWRvIfAUhz-16" value="&lt;font style=&quot;font-size: 17px;&quot;&gt;DISCONNECT&lt;/font&gt;" style="ellipse;whiteSpace=wrap;html=1;" vertex="1" parent="1">
          <mxGeometry x="152.5" y="650" width="180" height="60" as="geometry" />
        </mxCell>
        <mxCell id="zP8x6gBg1OQWRvIfAUhz-17" value="&lt;font style=&quot;font-size: 17px;&quot;&gt;DISCONNECT PLAYER&lt;/font&gt;" style="ellipse;whiteSpace=wrap;html=1;" vertex="1" parent="1">
          <mxGeometry x="490" y="650" width="180" height="60" as="geometry" />
        </mxCell>
        <mxCell id="ktk2DwW4lsrxxRolYfRH-1" value="&lt;font style=&quot;font-size: 17px;&quot;&gt;FINISH GAME&lt;/font&gt;" style="ellipse;whiteSpace=wrap;html=1;" vertex="1" parent="1">
          <mxGeometry x="490" y="740" width="180" height="60" as="geometry" />
        </mxCell>
        <mxCell id="ktk2DwW4lsrxxRolYfRH-2" value="&lt;font style=&quot;font-size: 17px;&quot;&gt;CLOSE GRAPHIC&lt;/font&gt;" style="ellipse;whiteSpace=wrap;html=1;" vertex="1" parent="1">
          <mxGeometry x="150" y="740" width="180" height="60" as="geometry" />
        </mxCell>
        <mxCell id="ktk2DwW4lsrxxRolYfRH-4" value="" style="endArrow=classic;html=1;rounded=0;exitX=0;exitY=0.5;exitDx=0;exitDy=0;" edge="1" parent="1" source="ktk2DwW4lsrxxRolYfRH-2">
          <mxGeometry width="50" height="50" relative="1" as="geometry">
            <mxPoint x="560" y="650" as="sourcePoint" />
            <mxPoint x="80" y="600" as="targetPoint" />
          </mxGeometry>
        </mxCell>
        <mxCell id="ktk2DwW4lsrxxRolYfRH-5" value="" style="endArrow=classic;html=1;rounded=0;exitX=1;exitY=0.5;exitDx=0;exitDy=0;entryX=0;entryY=0.5;entryDx=0;entryDy=0;" edge="1" parent="1">
          <mxGeometry width="50" height="50" relative="1" as="geometry">
            <mxPoint x="334" y="680" as="sourcePoint" />
            <mxPoint x="494" y="680" as="targetPoint" />
          </mxGeometry>
        </mxCell>
        <mxCell id="ktk2DwW4lsrxxRolYfRH-7" value="" style="endArrow=classic;html=1;rounded=0;exitX=0.5;exitY=1;exitDx=0;exitDy=0;entryX=0.5;entryY=0;entryDx=0;entryDy=0;" edge="1" parent="1" source="zP8x6gBg1OQWRvIfAUhz-17" target="ktk2DwW4lsrxxRolYfRH-1">
          <mxGeometry width="50" height="50" relative="1" as="geometry">
            <mxPoint x="344" y="690" as="sourcePoint" />
            <mxPoint x="504" y="690" as="targetPoint" />
          </mxGeometry>
        </mxCell>
        <mxCell id="ktk2DwW4lsrxxRolYfRH-8" value="" style="endArrow=classic;html=1;rounded=0;exitX=1;exitY=0.5;exitDx=0;exitDy=0;entryX=0;entryY=0.5;entryDx=0;entryDy=0;" edge="1" parent="1">
          <mxGeometry width="50" height="50" relative="1" as="geometry">
            <mxPoint x="490" y="769" as="sourcePoint" />
            <mxPoint x="330" y="769" as="targetPoint" />
          </mxGeometry>
        </mxCell>
      </root>
    </mxGraphModel>
  </diagram>
</mxfile>
